<mxfile host="app.diagrams.net" modified="2024-01-09T13:37:27.622Z" agent="Mozilla/5.0 (Windows NT 10.0; Win64; x64) AppleWebKit/537.36 (KHTML, like Gecko) Chrome/120.0.0.0 Safari/537.36" etag="rtx6X1HCMgOGpnnbnqkW" version="22.1.17" type="github">
  <diagram id="C5RBs43oDa-KdzZeNtuy" name="Page-1">
    <mxGraphModel dx="1059" dy="595" grid="1" gridSize="10" guides="1" tooltips="1" connect="1" arrows="1" fold="1" page="1" pageScale="1" pageWidth="827" pageHeight="1169" math="0" shadow="0">
      <root>
        <mxCell id="WIyWlLk6GJQsqaUBKTNV-0" />
        <mxCell id="WIyWlLk6GJQsqaUBKTNV-1" parent="WIyWlLk6GJQsqaUBKTNV-0" />
        <mxCell id="OBeu_sFzbtzD0pLxCqYV-2" value="" style="edgeStyle=orthogonalEdgeStyle;rounded=0;orthogonalLoop=1;jettySize=auto;html=1;" edge="1" parent="WIyWlLk6GJQsqaUBKTNV-1" source="OBeu_sFzbtzD0pLxCqYV-0" target="OBeu_sFzbtzD0pLxCqYV-1">
          <mxGeometry relative="1" as="geometry" />
        </mxCell>
        <mxCell id="OBeu_sFzbtzD0pLxCqYV-4" value="" style="edgeStyle=orthogonalEdgeStyle;rounded=0;orthogonalLoop=1;jettySize=auto;html=1;" edge="1" parent="WIyWlLk6GJQsqaUBKTNV-1" source="OBeu_sFzbtzD0pLxCqYV-0" target="OBeu_sFzbtzD0pLxCqYV-3">
          <mxGeometry relative="1" as="geometry" />
        </mxCell>
        <mxCell id="OBeu_sFzbtzD0pLxCqYV-6" value="" style="edgeStyle=orthogonalEdgeStyle;rounded=0;orthogonalLoop=1;jettySize=auto;html=1;" edge="1" parent="WIyWlLk6GJQsqaUBKTNV-1" source="OBeu_sFzbtzD0pLxCqYV-0" target="OBeu_sFzbtzD0pLxCqYV-5">
          <mxGeometry relative="1" as="geometry" />
        </mxCell>
        <mxCell id="OBeu_sFzbtzD0pLxCqYV-8" value="" style="edgeStyle=orthogonalEdgeStyle;rounded=0;orthogonalLoop=1;jettySize=auto;html=1;" edge="1" parent="WIyWlLk6GJQsqaUBKTNV-1" source="OBeu_sFzbtzD0pLxCqYV-0" target="OBeu_sFzbtzD0pLxCqYV-7">
          <mxGeometry relative="1" as="geometry" />
        </mxCell>
        <mxCell id="OBeu_sFzbtzD0pLxCqYV-21" value="" style="edgeStyle=orthogonalEdgeStyle;rounded=0;orthogonalLoop=1;jettySize=auto;html=1;" edge="1" parent="WIyWlLk6GJQsqaUBKTNV-1" source="OBeu_sFzbtzD0pLxCqYV-0" target="OBeu_sFzbtzD0pLxCqYV-20">
          <mxGeometry relative="1" as="geometry" />
        </mxCell>
        <mxCell id="OBeu_sFzbtzD0pLxCqYV-0" value="SKILLS" style="rounded=0;whiteSpace=wrap;html=1;" vertex="1" parent="WIyWlLk6GJQsqaUBKTNV-1">
          <mxGeometry x="320" y="70" width="120" height="60" as="geometry" />
        </mxCell>
        <mxCell id="OBeu_sFzbtzD0pLxCqYV-12" value="" style="edgeStyle=orthogonalEdgeStyle;rounded=0;orthogonalLoop=1;jettySize=auto;html=1;" edge="1" parent="WIyWlLk6GJQsqaUBKTNV-1" source="OBeu_sFzbtzD0pLxCqYV-1" target="OBeu_sFzbtzD0pLxCqYV-11">
          <mxGeometry relative="1" as="geometry" />
        </mxCell>
        <mxCell id="OBeu_sFzbtzD0pLxCqYV-13" style="edgeStyle=orthogonalEdgeStyle;rounded=0;orthogonalLoop=1;jettySize=auto;html=1;" edge="1" parent="WIyWlLk6GJQsqaUBKTNV-1" source="OBeu_sFzbtzD0pLxCqYV-1" target="OBeu_sFzbtzD0pLxCqYV-14">
          <mxGeometry relative="1" as="geometry">
            <mxPoint x="390" y="410" as="targetPoint" />
            <Array as="points">
              <mxPoint x="510" y="360" />
              <mxPoint x="510" y="360" />
            </Array>
          </mxGeometry>
        </mxCell>
        <mxCell id="OBeu_sFzbtzD0pLxCqYV-16" value="" style="edgeStyle=orthogonalEdgeStyle;rounded=0;orthogonalLoop=1;jettySize=auto;html=1;" edge="1" parent="WIyWlLk6GJQsqaUBKTNV-1" source="OBeu_sFzbtzD0pLxCqYV-1" target="OBeu_sFzbtzD0pLxCqYV-15">
          <mxGeometry relative="1" as="geometry" />
        </mxCell>
        <mxCell id="OBeu_sFzbtzD0pLxCqYV-19" value="" style="edgeStyle=orthogonalEdgeStyle;rounded=0;orthogonalLoop=1;jettySize=auto;html=1;" edge="1" parent="WIyWlLk6GJQsqaUBKTNV-1" source="OBeu_sFzbtzD0pLxCqYV-1" target="OBeu_sFzbtzD0pLxCqYV-17">
          <mxGeometry relative="1" as="geometry">
            <Array as="points">
              <mxPoint x="600" y="310" />
              <mxPoint x="600" y="310" />
            </Array>
          </mxGeometry>
        </mxCell>
        <mxCell id="OBeu_sFzbtzD0pLxCqYV-1" value="COMPETITVE CODING&amp;nbsp;" style="rounded=0;whiteSpace=wrap;html=1;" vertex="1" parent="WIyWlLk6GJQsqaUBKTNV-1">
          <mxGeometry x="490" y="220" width="120" height="60" as="geometry" />
        </mxCell>
        <mxCell id="OBeu_sFzbtzD0pLxCqYV-3" value="C++" style="rounded=0;whiteSpace=wrap;html=1;" vertex="1" parent="WIyWlLk6GJQsqaUBKTNV-1">
          <mxGeometry x="160" y="230" width="120" height="60" as="geometry" />
        </mxCell>
        <mxCell id="OBeu_sFzbtzD0pLxCqYV-5" value="PYTHON" style="rounded=0;whiteSpace=wrap;html=1;" vertex="1" parent="WIyWlLk6GJQsqaUBKTNV-1">
          <mxGeometry x="707" y="230" width="120" height="60" as="geometry" />
        </mxCell>
        <mxCell id="OBeu_sFzbtzD0pLxCqYV-7" value="3D MODELLING" style="rounded=0;whiteSpace=wrap;html=1;" vertex="1" parent="WIyWlLk6GJQsqaUBKTNV-1">
          <mxGeometry x="10" y="230" width="120" height="60" as="geometry" />
        </mxCell>
        <mxCell id="OBeu_sFzbtzD0pLxCqYV-11" value="CODECHEF" style="ellipse;whiteSpace=wrap;html=1;rounded=0;" vertex="1" parent="WIyWlLk6GJQsqaUBKTNV-1">
          <mxGeometry x="340" y="410" width="80" height="80" as="geometry" />
        </mxCell>
        <mxCell id="OBeu_sFzbtzD0pLxCqYV-14" value="CODEFORCES" style="ellipse;whiteSpace=wrap;html=1;aspect=fixed;" vertex="1" parent="WIyWlLk6GJQsqaUBKTNV-1">
          <mxGeometry x="460" y="410" width="80" height="80" as="geometry" />
        </mxCell>
        <mxCell id="OBeu_sFzbtzD0pLxCqYV-15" value="LEETCODE&lt;br&gt;&lt;br&gt;" style="ellipse;whiteSpace=wrap;html=1;rounded=0;" vertex="1" parent="WIyWlLk6GJQsqaUBKTNV-1">
          <mxGeometry x="660" y="410" width="80" height="80" as="geometry" />
        </mxCell>
        <mxCell id="OBeu_sFzbtzD0pLxCqYV-17" value="HAKERRANK&lt;br&gt;" style="ellipse;whiteSpace=wrap;html=1;rounded=0;" vertex="1" parent="WIyWlLk6GJQsqaUBKTNV-1">
          <mxGeometry x="560" y="410" width="80" height="80" as="geometry" />
        </mxCell>
        <mxCell id="OBeu_sFzbtzD0pLxCqYV-20" value="UNITY GAME DEVELOPMENT&lt;br&gt;" style="rounded=0;whiteSpace=wrap;html=1;" vertex="1" parent="WIyWlLk6GJQsqaUBKTNV-1">
          <mxGeometry x="80" y="410" width="120" height="60" as="geometry" />
        </mxCell>
      </root>
    </mxGraphModel>
  </diagram>
</mxfile>
